<?xml version="1.0" encoding="UTF-8"?><svg id="Capa_1" xmlns="http://www.w3.org/2000/svg" viewBox="0 0 300.99 54.06"><defs><style>.cls-1{fill:#c0c0c1;}.cls-2{isolation:isolate;}.cls-3{fill:#f1f2f3;}</style></defs><path class="cls-3" d="M27.03,0h246.93c14.93,0,27.03,12.1,27.03,27.03h0c0,14.93-12.1,27.03-27.03,27.03H27.03C12.1,54.06,0,41.96,0,27.03h0C0,12.1,12.1,0,27.03,0Z"/><polygon points="22.79 21.16 22.79 32.82 30.95 26.99 22.79 21.16"/><path class="cls-1" d="M91.63,24.99h147.78c1.1,0,2,.9,2,2h0c0,1.1-.9,2-2,2H91.63c-1.1,0-2-.9-2-2h0c0-1.1.9-2,2-2Z"/><g class="cls-2"><path d="M47.59,26.99c0-1.17.12-2.1.36-2.82s.6-1.26,1.07-1.64c.47-.39,1.07-.58,1.79-.58.53,0,.99.11,1.39.32.4.21.73.52.99.92.26.4.46.89.61,1.47.15.58.22,1.35.22,2.33,0,1.16-.12,2.09-.36,2.8-.24.71-.59,1.26-1.07,1.65-.47.39-1.07.58-1.79.58-.95,0-1.7-.34-2.24-1.02-.65-.82-.97-2.16-.97-4.01ZM48.84,26.99c0,1.62.19,2.7.57,3.23.38.54.85.8,1.4.8s1.02-.27,1.4-.81.57-1.61.57-3.23-.19-2.7-.57-3.24c-.38-.53-.85-.8-1.42-.8s-1,.24-1.33.71c-.42.6-.63,1.71-.63,3.33Z"/><path d="M55.93,26.09v-1.38h1.38v1.38h-1.38ZM55.93,31.86v-1.38h1.38v1.38h-1.38Z"/><path d="M59.08,26.99c0-1.17.12-2.1.36-2.82s.6-1.26,1.07-1.64c.47-.39,1.07-.58,1.79-.58.53,0,.99.11,1.39.32.4.21.73.52.99.92.26.4.46.89.61,1.47.15.58.22,1.35.22,2.33,0,1.16-.12,2.09-.36,2.8-.24.71-.59,1.26-1.07,1.65-.47.39-1.07.58-1.79.58-.95,0-1.7-.34-2.24-1.02-.65-.82-.97-2.16-.97-4.01ZM60.33,26.99c0,1.62.19,2.7.57,3.23.38.54.85.8,1.4.8s1.02-.27,1.4-.81.57-1.61.57-3.23-.19-2.7-.57-3.24c-.38-.53-.85-.8-1.42-.8s-1,.24-1.33.71c-.42.6-.63,1.71-.63,3.33Z"/><path d="M66.75,26.99c0-1.17.12-2.1.36-2.82s.6-1.26,1.07-1.64c.47-.39,1.07-.58,1.79-.58.53,0,.99.11,1.39.32.4.21.73.52.99.92.26.4.46.89.61,1.47.15.58.22,1.35.22,2.33,0,1.16-.12,2.09-.36,2.8-.24.71-.59,1.26-1.07,1.65-.47.39-1.07.58-1.79.58-.95,0-1.7-.34-2.24-1.02-.65-.82-.97-2.16-.97-4.01ZM67.99,26.99c0,1.62.19,2.7.57,3.23.38.54.85.8,1.4.8s1.02-.27,1.4-.81.57-1.61.57-3.23-.19-2.7-.57-3.24c-.38-.53-.85-.8-1.42-.8s-1,.24-1.33.71c-.42.6-.63,1.71-.63,3.33Z"/></g><path d="M266.64,24.33v5.31h3.66l3.66,3.66v-12.63l-3.66,3.66h-3.66Z"/><path d="M275.54,20.58v1.57c2.67,0,4.84,2.17,4.84,4.84s-2.17,4.84-4.84,4.84v1.57c3.54,0,6.41-2.88,6.41-6.41s-2.88-6.41-6.41-6.41Z"/><path d="M278.9,26.99c0-1.86-1.51-3.36-3.36-3.36v6.73c1.86,0,3.36-1.51,3.36-3.36Z"/></svg>